<!--?xml version="1.0" standalone="no"?-->
              <svg id="sw-js-blob-svg" viewBox="0 0 100 100" xmlns="http://www.w3.org/2000/svg" version="1.1">
                    <defs> 
                        <linearGradient id="sw-gradient" x1="0" x2="1" y1="1" y2="0">
                            <stop id="stop1" stop-color="rgba(255, 32, 78, 1)" offset="0%"></stop>
                            <stop id="stop2" stop-color="rgba(160, 21, 62, 1)" offset="100%"></stop>
                        </linearGradient>
                    </defs>
                <path fill="url(#sw-gradient)" d="M23.3,-30.2C28.2,-23.7,28.7,-14.4,29.8,-5.7C30.8,3.1,32.3,11.3,30,19.2C27.7,27.1,21.5,34.7,13.6,37.6C5.7,40.6,-4,39.1,-12.2,35.3C-20.4,31.5,-27.1,25.5,-32.3,17.9C-37.6,10.3,-41.4,1.2,-39.1,-6.1C-36.9,-13.4,-28.7,-18.9,-21.2,-25C-13.7,-31,-6.8,-37.6,1.2,-39C9.2,-40.5,18.4,-36.7,23.3,-30.2Z" width="100%" height="100%" transform="translate(50 50)" stroke-width="0" style="transition: 0.3s;" stroke="url(#sw-gradient)"></path>
              </svg>